<svg version="1.1" id="Layer_1" xmlns="http://www.w3.org/2000/svg" xmlns:xlink="http://www.w3.org/1999/xlink" x="0px" y="0px"
	 width="100%" viewBox="0 0 1086 394" enable-background="new 0 0 1086 394" xml:space="preserve">
<path fill="#FFFFFF" opacity="1.000000" stroke="none" 
	d="
M688.000000,395.000000 
	C460.166656,395.000000 232.833328,394.989197 5.500043,395.093414 
	C1.750797,395.095154 0.902422,394.249481 0.905732,390.499908 
	C1.019027,262.166687 1.019027,133.833313 0.905732,5.500083 
	C0.902422,1.750522 1.750915,0.905912 5.500026,0.906955 
	C364.500000,1.006838 723.500000,1.006838 1082.500000,0.906955 
	C1086.249023,0.905912 1087.097656,1.750522 1087.094360,5.500083 
	C1086.981079,133.833313 1086.981079,262.166687 1087.094360,390.499908 
	C1087.097656,394.249481 1086.249512,395.097443 1082.499878,395.094238 
	C951.166687,394.981415 819.833313,395.000000 688.000000,395.000000 
z"/>
<path fill="#020202" opacity="1.000000" stroke="none" 
	d="
M111.025871,289.982544 
	C91.857391,273.255463 81.881546,252.141495 79.995644,227.445435 
	C76.800461,185.604034 88.393478,148.195358 117.136444,117.309166 
	C148.891647,83.186119 188.496475,69.060432 234.860229,75.488548 
	C254.162201,78.164673 271.746124,85.169144 285.907959,99.301430 
	C295.506989,108.880455 295.600983,108.787437 284.986359,116.521179 
	C280.144287,120.049057 275.228119,123.480827 270.489685,127.142746 
	C268.419617,128.742523 267.373138,129.061279 265.532715,126.550858 
	C252.368195,108.593803 234.245132,100.769226 212.307877,101.779831 
	C170.010162,103.728378 141.768631,126.497772 123.899200,163.301437 
	C113.556595,184.602921 110.061806,207.297745 114.914619,230.827057 
	C121.435806,262.445679 146.167526,283.984192 178.560455,285.917084 
	C198.572433,287.111206 218.072006,284.737427 236.428467,275.877991 
	C238.961655,274.655396 240.172958,273.137604 240.641251,270.416260 
	C243.884567,251.568329 247.166748,232.725891 250.661713,213.923553 
	C251.292892,210.527924 249.588715,210.906769 247.494827,210.910660 
	C233.000183,210.937561 218.503891,210.808792 204.011856,211.005142 
	C200.359512,211.054611 199.383835,210.099747 200.179886,206.522568 
	C201.659988,199.871536 202.928955,193.165558 204.015884,186.438843 
	C204.461792,183.679138 205.699646,183.034561 208.316574,183.043869 
	C233.307129,183.132706 258.298676,183.179276 283.288361,183.009171 
	C287.059479,182.983505 287.278931,184.354782 286.741455,187.398819 
	C280.726715,221.464355 274.760773,255.538651 268.894257,289.629974 
	C268.310120,293.024719 266.958282,295.047638 263.678345,296.583282 
	C228.403992,313.098511 191.677658,318.625061 153.367325,310.892365 
	C137.674042,307.724762 123.552299,300.704376 111.025871,289.982544 
z"/>
<path fill="#020202" opacity="1.000000" stroke="none" 
	d="
M576.928589,153.919586 
	C605.585022,147.655334 632.065491,150.271896 654.434265,170.544327 
	C668.050415,182.884399 673.742920,199.066345 673.611816,217.115768 
	C673.407166,245.289856 664.027832,269.783722 643.268127,289.495819 
	C615.270142,316.080872 566.761597,320.782654 536.156555,299.379791 
	C518.984436,287.371002 509.769257,270.482971 509.116821,249.565125 
	C508.094208,216.780594 519.677429,189.382874 545.799072,168.852631 
	C554.903137,161.697357 565.254089,156.823959 576.928589,153.919586 
z"/>
<path fill="#030303" opacity="1.000000" stroke="none" 
	d="
M798.314819,176.318665 
	C805.479797,169.807129 812.410522,163.564835 819.269104,157.244232 
	C820.798523,155.834793 822.283569,154.980469 824.510254,155.001495 
	C836.666931,155.116302 848.825256,155.056152 861.240051,155.056152 
	C861.082153,157.352646 859.197266,158.066223 857.952087,159.138931 
	C833.094238,180.552521 808.240662,201.971588 783.258606,223.239655 
	C780.415222,225.660294 780.080627,227.110016 782.474304,230.191238 
	C801.468811,254.641464 820.261353,279.248718 839.107788,303.813934 
	C840.103149,305.111298 841.024475,306.465454 842.595947,308.648468 
	C834.767883,308.648468 827.587463,307.797882 820.690674,308.834503 
	C808.269287,310.701416 800.897278,305.823761 794.093018,295.441284 
	C780.242249,274.306793 764.847290,254.183441 750.036316,233.681274 
	C749.126831,232.422287 748.640869,230.661697 746.400146,230.001282 
	C743.584412,246.102570 740.799133,262.071350 737.997009,278.037231 
	C736.415894,287.045746 734.688904,296.030975 733.284912,305.066711 
	C732.879944,307.673218 732.181152,308.780426 729.326111,308.712738 
	C721.334045,308.523254 713.333679,308.581085 705.338440,308.684418 
	C702.702209,308.718475 701.986023,308.135406 702.498779,305.251160 
	C711.930847,252.201660 721.235291,199.129456 730.557678,146.060471 
	C735.046265,120.508484 739.577942,94.963715 743.926941,69.387917 
	C744.568115,65.616814 745.412292,63.590618 750.003052,63.955692 
	C756.790527,64.495468 763.672241,64.408104 770.476318,63.984230 
	C774.960205,63.704899 775.666809,65.103035 774.910645,69.200119 
	C771.409302,88.169739 768.177979,107.189064 764.817932,126.184929 
	C759.604126,155.661118 754.366211,185.133072 749.128113,214.604965 
	C748.927124,215.736160 748.725220,216.887177 748.335693,217.960724 
	C747.525146,220.195099 748.784302,220.282684 750.250427,219.732681 
	C751.126770,219.403915 751.820190,218.548447 752.553345,217.882950 
	C767.724121,204.112549 782.888733,190.335449 798.314819,176.318665 
z"/>
<path fill="#020202" opacity="1.000000" stroke="none" 
	d="
M431.779114,154.109695 
	C456.089600,161.792358 472.848145,176.628494 478.411652,201.761749 
	C482.398071,219.770569 480.013702,237.595291 473.228729,254.620941 
	C461.626099,283.735748 440.896210,303.182007 410.072723,310.190399 
	C384.352448,316.038452 359.647217,313.382599 338.344879,296.035492 
	C322.949219,283.498352 315.644775,266.720886 315.453491,247.080078 
	C315.194977,220.536163 323.317902,196.779495 342.238861,177.801285 
	C367.164764,152.799942 397.477112,146.239685 431.779114,154.109695 
z"/>
<path fill="#020202" opacity="1.000000" stroke="none" 
	d="
M922.000000,241.108078 
	C912.170532,241.108093 902.837402,241.258347 893.513489,241.030426 
	C890.042053,240.945541 888.971375,241.931580 888.963013,245.468201 
	C888.912476,266.956787 905.993408,285.143677 927.725830,286.955353 
	C948.103333,288.654053 964.962891,281.837677 978.560059,266.804352 
	C980.683716,264.456390 981.871460,264.041626 984.213013,266.473877 
	C988.366211,270.787689 992.849548,274.787567 997.262146,278.845490 
	C998.772949,280.234924 999.541748,281.122467 997.795715,283.222656 
	C974.438477,311.317841 926.290894,321.417969 893.666870,304.776978 
	C872.011719,293.731018 861.143494,275.366577 859.403625,251.620758 
	C856.388245,210.466888 879.023560,169.864243 919.699524,155.831055 
	C938.842957,149.226624 958.288635,148.634521 977.389221,155.867981 
	C998.422485,163.833374 1009.401245,179.829285 1011.971375,201.855743 
	C1013.334290,213.536026 1011.962830,225.089890 1010.246948,236.657257 
	C1009.708679,240.285278 1008.546875,241.215866 1004.965454,241.195221 
	C977.477722,241.036743 949.988647,241.108139 922.000000,241.108078 
z"/>
<path fill="#FDFDFD" opacity="1.000000" stroke="none" 
	d="
M639.922180,240.748367 
	C636.879517,250.713058 632.750793,259.639465 625.121704,268.024384 
	C625.603455,261.107819 624.343811,255.593781 620.763245,250.806366 
	C617.213684,246.060440 612.483521,243.098953 606.659302,242.141830 
	C596.960693,240.548019 587.246643,246.135529 583.247375,255.410172 
	C578.612427,266.159302 581.978943,276.292755 593.320007,285.728790 
	C568.826416,290.866119 545.350525,278.903656 540.562012,251.927032 
	C535.837280,225.309204 550.168518,195.363419 573.942688,182.595123 
	C592.318115,172.726334 614.653137,174.585083 628.996399,187.509888 
	C639.510498,196.984207 642.874146,209.453094 642.605408,223.112625 
	C642.490784,228.938446 641.611755,234.715851 639.922180,240.748367 
z"/>
<path fill="#FDFDFD" opacity="1.000000" stroke="none" 
	d="
M361.422791,277.615906 
	C350.704376,268.610443 346.313782,256.882477 346.442505,243.781937 
	C346.702362,217.339325 356.690735,195.805649 380.649445,182.549515 
	C398.690369,172.567642 420.768616,174.488297 435.261292,187.343842 
	C447.717163,198.392685 450.299286,213.090515 448.697479,228.842072 
	C447.904633,236.638962 445.884308,244.183182 442.261261,251.882446 
	C436.580963,245.060410 429.721863,240.872925 420.667114,242.099609 
	C415.549774,242.792892 411.203491,245.161118 407.706970,248.983185 
	C399.082977,258.410034 399.775116,271.269653 409.494568,282.698730 
	C399.788818,289.139984 373.923279,288.835602 361.422791,277.615906 
z"/>
<path fill="#FBFBFB" opacity="1.000000" stroke="none" 
	d="
M976.801331,218.733734 
	C948.695557,218.733719 921.063904,218.733719 892.944641,218.733719 
	C896.928040,203.656006 905.111145,191.933670 917.914795,183.755402 
	C933.018494,174.108002 949.253296,171.788010 965.882019,179.259552 
	C980.408447,185.786530 985.486450,201.348465 983.558716,216.136078 
	C982.971985,220.637329 979.425354,218.001328 976.801331,218.733734 
z"/>
</svg>